<svg xmlns="http://www.w3.org/2000/svg" viewBox="0 0 200 200" width="200" height="200">
  <defs>
    <linearGradient id="goldGrad2" x1="0%" y1="0%" x2="100%" y2="100%">
      <stop offset="0%" style="stop-color:#C4A77D;stop-opacity:1" />
      <stop offset="100%" style="stop-color:#8B7355;stop-opacity:1" />
    </linearGradient>
    <linearGradient id="blueGrad2" x1="0%" y1="0%" x2="100%" y2="100%">
      <stop offset="0%" style="stop-color:#0A2463;stop-opacity:1" />
      <stop offset="100%" style="stop-color:#1e3a8a;stop-opacity:1" />
    </linearGradient>
  </defs>
  
  <rect width="200" height="200" fill="#0A2463" rx="20" ry="20"/>
  
  <g transform="translate(50, 40)">
    <polygon points="50,10 90,30 90,70 50,90 10,70 10,30" 
             fill="none" 
             stroke="url(#goldGrad2)" 
             stroke-width="4"/>
    
    <polygon points="50,30 70,40 70,60 50,70 30,60 30,40" 
             fill="url(#goldGrad2)" 
             opacity="0.3"/>
    
    <line x1="50" y1="10" x2="50" y2="30" stroke="url(#goldGrad2)" stroke-width="2"/>
    <line x1="90" y1="30" x2="70" y2="40" stroke="url(#goldGrad2)" stroke-width="2"/>
    <line x1="90" y1="70" x2="70" y2="60" stroke="url(#goldGrad2)" stroke-width="2"/>
    <line x1="50" y1="90" x2="50" y2="70" stroke="url(#goldGrad2)" stroke-width="2"/>
    <line x1="10" y1="70" x2="30" y2="60" stroke="url(#goldGrad2)" stroke-width="2"/>
    <line x1="10" y1="30" x2="30" y2="40" stroke="url(#goldGrad2)" stroke-width="2"/>
    
    <circle cx="50" cy="50" r="8" fill="#C4A77D"/>
  </g>
  
  <text x="100" y="165" 
        text-anchor="middle" 
        font-family="Arial, sans-serif" 
        font-size="18" 
        font-weight="bold" 
        fill="#ffffff">InvestIQ</text>
  
  <text x="100" y="182" 
        text-anchor="middle" 
        font-family="Arial, sans-serif" 
        font-size="10" 
        fill="#C4A77D">AI Investment Advisor</text>
</svg>